<mxfile host="Electron" agent="Mozilla/5.0 (Macintosh; Intel Mac OS X 10_15_7) AppleWebKit/537.36 (KHTML, like Gecko) draw.io/28.0.6 Chrome/138.0.7204.100 Electron/37.2.3 Safari/537.36" version="28.0.6">
  <diagram name="Page-1" id="o31JFWJSxObm_PE2Y7e0">
    <mxGraphModel dx="2140" dy="912" grid="1" gridSize="10" guides="1" tooltips="1" connect="1" arrows="1" fold="1" page="1" pageScale="1" pageWidth="850" pageHeight="1100" math="0" shadow="0">
      <root>
        <mxCell id="0" />
        <mxCell id="1" parent="0" />
        <mxCell id="ytNqxNjFTpGv5gHGB567-1" value="CI/CD Environment" style="verticalAlign=top;align=left;spacingTop=8;spacingLeft=2;spacingRight=12;shape=cube;size=10;direction=south;fontStyle=4;html=1;whiteSpace=wrap;fillColor=#FAFAFA;strokeColor=#36393d;" parent="1" vertex="1">
          <mxGeometry x="-425" y="400" width="530" height="280" as="geometry" />
        </mxCell>
        <mxCell id="ThOp-BylEAdNaB0-3Ad_-1" style="edgeStyle=orthogonalEdgeStyle;rounded=0;orthogonalLoop=1;jettySize=auto;html=1;endArrow=none;endFill=0;" edge="1" parent="1" source="ytNqxNjFTpGv5gHGB567-4">
          <mxGeometry relative="1" as="geometry">
            <mxPoint x="70" y="550" as="targetPoint" />
          </mxGeometry>
        </mxCell>
        <mxCell id="ytNqxNjFTpGv5gHGB567-4" value="«component&lt;span style=&quot;background-color: transparent; color: light-dark(rgb(0, 0, 0), rgb(255, 255, 255));&quot;&gt;»&lt;/span&gt;&lt;div&gt;&lt;b&gt;:Playwright MCP Server&lt;/b&gt;&lt;/div&gt;" style="html=1;dropTarget=0;whiteSpace=wrap;" parent="1" vertex="1">
          <mxGeometry x="-140" y="445" width="180" height="80" as="geometry" />
        </mxCell>
        <mxCell id="ytNqxNjFTpGv5gHGB567-5" value="" style="shape=module;jettyWidth=8;jettyHeight=4;" parent="ytNqxNjFTpGv5gHGB567-4" vertex="1">
          <mxGeometry x="1" width="20" height="20" relative="1" as="geometry">
            <mxPoint x="-27" y="7" as="offset" />
          </mxGeometry>
        </mxCell>
        <mxCell id="ytNqxNjFTpGv5gHGB567-9" value="LLM Server" style="verticalAlign=top;align=left;spacingTop=8;spacingLeft=2;spacingRight=12;shape=cube;size=10;direction=south;fontStyle=4;html=1;whiteSpace=wrap;fillColor=#FAFAFA;strokeColor=#36393d;" parent="1" vertex="1">
          <mxGeometry x="225" y="400" width="200" height="280" as="geometry" />
        </mxCell>
        <mxCell id="ytNqxNjFTpGv5gHGB567-10" value="«component&lt;span style=&quot;background-color: transparent; color: light-dark(rgb(0, 0, 0), rgb(255, 255, 255));&quot;&gt;»&lt;/span&gt;&lt;div&gt;&lt;b&gt;:LLM Model&lt;/b&gt;&lt;/div&gt;" style="html=1;dropTarget=0;whiteSpace=wrap;" parent="1" vertex="1">
          <mxGeometry x="250" y="508" width="150" height="85" as="geometry" />
        </mxCell>
        <mxCell id="ytNqxNjFTpGv5gHGB567-11" value="" style="shape=module;jettyWidth=8;jettyHeight=4;" parent="ytNqxNjFTpGv5gHGB567-10" vertex="1">
          <mxGeometry x="1" width="20" height="20" relative="1" as="geometry">
            <mxPoint x="-27" y="7" as="offset" />
          </mxGeometry>
        </mxCell>
        <mxCell id="ytNqxNjFTpGv5gHGB567-12" value="«component&lt;span style=&quot;background-color: transparent; color: light-dark(rgb(0, 0, 0), rgb(255, 255, 255));&quot;&gt;»&lt;/span&gt;&lt;div&gt;&lt;b&gt;:Headless Browser&lt;/b&gt;&lt;/div&gt;" style="html=1;dropTarget=0;whiteSpace=wrap;" parent="1" vertex="1">
          <mxGeometry x="-410" y="445" width="150" height="80" as="geometry" />
        </mxCell>
        <mxCell id="ytNqxNjFTpGv5gHGB567-13" value="" style="shape=module;jettyWidth=8;jettyHeight=4;" parent="ytNqxNjFTpGv5gHGB567-12" vertex="1">
          <mxGeometry x="1" width="20" height="20" relative="1" as="geometry">
            <mxPoint x="-27" y="7" as="offset" />
          </mxGeometry>
        </mxCell>
        <mxCell id="ytNqxNjFTpGv5gHGB567-23" style="edgeStyle=orthogonalEdgeStyle;rounded=0;orthogonalLoop=1;jettySize=auto;html=1;entryX=1;entryY=0.5;entryDx=0;entryDy=0;endArrow=none;endFill=0;" parent="1" source="ytNqxNjFTpGv5gHGB567-4" target="ytNqxNjFTpGv5gHGB567-12" edge="1">
          <mxGeometry relative="1" as="geometry">
            <mxPoint x="-185" y="485" as="targetPoint" />
          </mxGeometry>
        </mxCell>
        <mxCell id="ThOp-BylEAdNaB0-3Ad_-3" value="&lt;i&gt;&amp;lt;&amp;lt; CDP &amp;gt;&amp;gt;&lt;/i&gt;" style="edgeLabel;html=1;align=center;verticalAlign=middle;resizable=0;points=[];" vertex="1" connectable="0" parent="ytNqxNjFTpGv5gHGB567-23">
          <mxGeometry x="0.0611" relative="1" as="geometry">
            <mxPoint as="offset" />
          </mxGeometry>
        </mxCell>
        <mxCell id="ytNqxNjFTpGv5gHGB567-24" value="«component&lt;span style=&quot;background-color: transparent; color: light-dark(rgb(0, 0, 0), rgb(255, 255, 255));&quot;&gt;»&lt;/span&gt;&lt;div&gt;&lt;b&gt;:Prompt&lt;/b&gt;&lt;/div&gt;" style="html=1;dropTarget=0;whiteSpace=wrap;" parent="1" vertex="1">
          <mxGeometry x="-140" y="570" width="180" height="80" as="geometry" />
        </mxCell>
        <mxCell id="ytNqxNjFTpGv5gHGB567-25" value="" style="shape=module;jettyWidth=8;jettyHeight=4;" parent="ytNqxNjFTpGv5gHGB567-24" vertex="1">
          <mxGeometry x="1" width="20" height="20" relative="1" as="geometry">
            <mxPoint x="-27" y="7" as="offset" />
          </mxGeometry>
        </mxCell>
        <mxCell id="ytNqxNjFTpGv5gHGB567-27" style="edgeStyle=orthogonalEdgeStyle;rounded=0;orthogonalLoop=1;jettySize=auto;html=1;entryX=0;entryY=0.5;entryDx=0;entryDy=0;endArrow=none;endFill=0;" parent="1" edge="1" target="ytNqxNjFTpGv5gHGB567-10">
          <mxGeometry relative="1" as="geometry">
            <mxPoint x="40" y="609.5" as="sourcePoint" />
            <mxPoint x="155" y="550" as="targetPoint" />
            <Array as="points">
              <mxPoint x="70" y="610" />
              <mxPoint x="70" y="551" />
            </Array>
          </mxGeometry>
        </mxCell>
        <mxCell id="ThOp-BylEAdNaB0-3Ad_-2" value="&lt;i&gt;&amp;lt;&amp;lt; REST &amp;gt;&amp;gt;&lt;/i&gt;" style="edgeLabel;html=1;align=center;verticalAlign=middle;resizable=0;points=[];" vertex="1" connectable="0" parent="ytNqxNjFTpGv5gHGB567-27">
          <mxGeometry x="0.2731" relative="1" as="geometry">
            <mxPoint as="offset" />
          </mxGeometry>
        </mxCell>
      </root>
    </mxGraphModel>
  </diagram>
</mxfile>
